<svg width="69" height="22" viewBox="0 0 69 22" fill="none" xmlns="http://www.w3.org/2000/svg">
<path d="M4.90001 12.42V2.00002V1.50002H4.40001H1.20001H0.700012V2.00002V16V16.5H1.20001H9.40001H9.90001V16V12.92V12.9037C10.612 15.1701 12.5657 16.78 14.8917 16.78C15.8724 16.78 16.7009 16.5521 17.3717 16.1363V16.5H17.8717H20.8717H21.3717V16V6.00002V5.50002H20.8717H17.8717H17.3717V5.86377C16.7009 5.44794 15.8724 5.22002 14.8917 5.22002C11.955 5.22002 9.61173 7.78631 9.61173 11C9.61173 11.4907 9.66636 11.9663 9.7694 12.42H9.40001H4.90001ZM26.5727 5.82202V5.50002H26.0727H23.0727H22.5727V6.00002V16V16.5H23.0727H26.0727H26.5727V16V10.54C26.5727 9.91621 26.7385 9.5426 26.949 9.32572C27.158 9.11029 27.4785 8.98002 27.9327 8.98002C28.3144 8.98002 28.6155 9.09443 28.8178 9.28709C29.0151 9.47494 29.1727 9.78874 29.1727 10.3V16V16.5H29.6727H32.6727H33.1727V16V9.86002C33.1727 8.40078 32.7055 7.23307 31.9175 6.42783C31.1314 5.62438 30.0628 5.22002 28.9327 5.22002C28.0165 5.22002 27.2084 5.43356 26.5727 5.82202ZM41.9928 1.50002H41.4928V2.00002V5.86377C40.822 5.44794 39.9935 5.22002 39.0128 5.22002C36.0761 5.22002 33.7328 7.78631 33.7328 11C33.7328 14.2137 36.0761 16.78 39.0128 16.78C39.9935 16.78 40.822 16.5521 41.4928 16.1363V16.5H41.9928H44.9928H45.4928V16V2.00002V1.50002H44.9928H41.9928ZM46.6938 16V16.5H47.1938H50.1938H50.6938V16V6.00002V5.50002H50.1938H49.4194C50.3277 5.19137 50.9938 4.32343 50.9938 3.32002C50.9938 2.06388 49.9499 1.02002 48.6938 1.02002C47.4376 1.02002 46.3938 2.06388 46.3938 3.32002C46.3938 4.32342 47.0598 5.19137 47.9681 5.50002H47.1938H46.6938V6.00002V16ZM57.8446 5.09804L58.3891 5.14665V4.60002V1.72002V1.24923L57.9191 1.22092C56.1763 1.11593 54.8071 1.49957 53.8733 2.36911C53.0456 3.13996 52.6294 4.22804 52.5452 5.50002H51.6891H51.1891V6.00002V8.88002V9.38002H51.6891H52.5291V16V16.5H53.0291H56.0291H56.5291V16V9.38002H57.8891H58.3891V8.88002V7.55705L61.7227 15.5477C61.5395 15.9931 61.3356 16.2509 61.0945 16.4111C60.8174 16.5953 60.4172 16.7 59.7613 16.7H59.2613V17.2V20V20.4756L59.7363 20.4994C61.2193 20.5735 62.4881 20.2779 63.5395 19.4963C64.5829 18.7208 65.3539 17.5098 65.9328 15.8663C65.9328 15.8662 65.9329 15.8662 65.9329 15.8661L69.3528 6.16628L69.5877 5.50002H68.8813H65.6813H65.3118L65.2033 5.8532L63.7619 10.5453L62.0513 5.82952L61.9318 5.50002H61.5813H58.3891H58.2813H57.8891H57.5309H56.6107C56.6652 5.37114 56.7406 5.2943 56.8172 5.24305C56.9997 5.12087 57.3241 5.05157 57.8446 5.09804ZM15.4917 12.94C14.9174 12.94 14.4552 12.7463 14.1378 12.429C13.8213 12.1125 13.6117 11.6358 13.6117 11C13.6117 10.3643 13.8213 9.88759 14.1378 9.57107C14.4552 9.25371 14.9174 9.06002 15.4917 9.06002C16.0661 9.06002 16.5283 9.25371 16.8457 9.57107C17.1622 9.88759 17.3717 10.3643 17.3717 11C17.3717 11.6358 17.1622 12.1125 16.8457 12.429C16.5283 12.7463 16.0661 12.94 15.4917 12.94ZM39.6128 12.94C39.0384 12.94 38.5762 12.7463 38.2589 12.429C37.9424 12.1125 37.7328 11.6358 37.7328 11C37.7328 10.3643 37.9424 9.88759 38.2589 9.57107C38.5762 9.25371 39.0384 9.06002 39.6128 9.06002C40.1872 9.06002 40.6494 9.25371 40.9668 9.57107C41.2833 9.88759 41.4928 10.3643 41.4928 11C41.4928 11.6358 41.2833 12.1125 40.9668 12.429C40.6494 12.7463 40.1872 12.94 39.6128 12.94Z" fill="#0B0D17" stroke="black"/>
</svg>
